<svg viewBox="0 0 1200 630" xmlns="http://www.w3.org/2000/svg">
  <!-- Background Gradient -->
  <defs>
    <linearGradient id="bgGradient" x1="0%" y1="0%" x2="100%" y2="100%">
      <stop offset="0%" style="stop-color:#0f0c29;stop-opacity:1" />
      <stop offset="50%" style="stop-color:#302b63;stop-opacity:1" />
      <stop offset="100%" style="stop-color:#24243e;stop-opacity:1" />
    </linearGradient>
    <radialGradient id="accentGradient" cx="70%" cy="30%">
      <stop offset="0%" style="stop-color:#16213e;stop-opacity:0.3" />
      <stop offset="100%" style="stop-color:#16213e;stop-opacity:0" />
    </radialGradient>
  </defs>

  <!-- Background -->
  <rect width="1200" height="630" fill="url(#bgGradient)"/>
  <rect width="1200" height="630" fill="url(#accentGradient)"/>

  <!-- Decorative geometric pattern -->
  <polygon points="1100,50 1150,150 1050,150" fill="#16213e" opacity="0.08"/>
  <circle cx="80" cy="500" r="95" fill="#16213e" opacity="0.1"/>
  <rect x="300" y="100" width="200" height="200" fill="#16213e" opacity="0.05" transform="rotate(25 400 200)"/>

  <!-- Warning/Alert Icon -->
  <g transform="translate(900, 170)">
    <!-- Triangle warning sign -->
    <polygon points="0,-35 35,25 -35,25" fill="none" stroke="#ff6b6b" stroke-width="3" stroke-linejoin="round"/>
    <!-- Exclamation mark -->
    <circle cx="0" cy="-5" r="4" fill="#ff6b6b"/>
    <rect x="-2" y="5" width="4" height="15" rx="2" fill="#ff6b6b"/>

    <!-- Alarm lines radiating -->
    <g stroke="#ff6b6b" stroke-width="2" opacity="0.6" stroke-linecap="round">
      <line x1="0" y1="-55" x2="0" y2="-70"/>
      <line x1="38" y1="-12" x2="52" y2="-20"/>
      <line x1="38" y1="35" x2="52" y2="50"/>
      <line x1="-38" y1="35" x2="-52" y2="50"/>
      <line x1="-38" y1="-12" x2="-52" y2="-20"/>
    </g>
  </g>

  <!-- Main Title -->
  <text x="600" y="300" font-family="Arial, sans-serif" font-size="56" font-weight="bold" text-anchor="middle" fill="white">
    Les signaux d'alarme
  </text>
  <text x="600" y="370" font-family="Arial, sans-serif" font-size="56" font-weight="bold" text-anchor="middle" fill="white">
    d'un MLM douteux
  </text>

  <!-- Decorative line -->
  <line x1="250" y1="400" x2="950" y2="400" stroke="#ff6b6b" stroke-width="2" opacity="0.5"/>

  <!-- Branding -->
  <text x="1150" y="605" font-family="Arial, sans-serif" font-size="18" font-weight="bold" text-anchor="end" fill="#16213e" opacity="0.8">
    MLM DÉCRYPTÉ
  </text>
</svg>